<svg version="1.1" viewBox="0 0 85.7 96.7" xmlns="http://www.w3.org/2000/svg">
 <style type="text/css">.st0{fill:#FFFFFF;}
	.st1{fill:#CCCCCC;}
	.st2{fill:#A6A6A6;}
	.st3{display:none;}
	.st4{display:inline;}
	.st5{fill:none;stroke:#ED1C24;stroke-width:0.3175;stroke-miterlimit:10;stroke-dasharray:2.1169;}
	.st6{display:inline;fill:none;stroke:#ED1C24;stroke-width:0.3175;stroke-miterlimit:10;stroke-dasharray:2.1169;}
	.st7{display:inline;fill:none;stroke:#ED1C24;stroke-width:0.3;stroke-miterlimit:10;stroke-dasharray:2;}
	.st8{display:inline;fill:none;stroke:#ED1C24;stroke-width:0.3;stroke-miterlimit:10;stroke-dasharray:1.9999;}
	.st9{fill:none;stroke:#ED1C24;stroke-width:0.3;stroke-miterlimit:10;}
	.st10{fill:#ED1C24;}
	.st11{display:inline;fill:#ED1C24;}
	.st12{display:inline;opacity:0.15;fill:#ED1C24;}
	.st13{display:inline;fill:none;stroke:#ED1C24;stroke-width:0.317;stroke-miterlimit:10;stroke-dasharray:2.1132;}</style>
 <g transform="translate(-44.6,-44.6)">
  <path class="st1" d="m130.2 112.2v-45l-39-22.5v17.3l15.3 8.8c0.6 0.3 0.6 1.2 0 1.5l-18.2 10.5c-0.5 0.3-1.2 0.3-1.7 0l-18.2-10.6c-0.6-0.3-0.6-1.2 0-1.5l15.3-8.8v-17.3l-39 22.5v45.1-0.2 0.2l15-8.6v-17.7c0-0.6 0.7-1.1 1.3-0.7l18.2 10.5c0.5 0.3 0.9 0.9 0.9 1.5v21c0 0.6-0.7 1.1-1.3 0.7l-15.3-8.8-15 8.6 39 22.5 39-22.5-15-8.6-15.3 8.8c-0.5 0.3-1.3-0.1-1.3-0.7v-21c0-0.6 0.3-1.2 0.9-1.5l18.2-10.5c0.5-0.3 1.3 0.1 1.3 0.7v17.7z"/>
  <path class="st2" d="m87.4 141.3 39-22.5-15-8.6-15.3 8.8c-0.5 0.3-1.3-0.1-1.3-0.7v-21c0-0.6 0.3-1.2 0.9-1.5l18.2-10.5c0.5-0.3 1.3 0.1 1.3 0.7v17.7l15 8.6v-45.1l-42.8 24.7z"/>
  <path class="st0" d="m91.1 44.6v17.3l15.3 8.8c0.6 0.3 0.6 1.2 0 1.5l-18.2 10.5c-0.5 0.3-1.2 0.3-1.7 0l-18.1-10.5c-0.6-0.3-0.6-1.2 0-1.5l15.3-8.8v-17.3l-39 22.5 42.8 24.7 42.8-24.7z"/>
  <path class="st1" d="m78.6 118.9-15.3-8.8-15 8.6 39 22.5v-49.4l-42.7-24.6v45.1-0.2 0.2l15-8.6v-17.7c0-0.6 0.7-1.1 1.3-0.7l18.2 10.5c0.5 0.3 0.9 0.9 0.9 1.5v21c-0.1 0.5-0.8 0.9-1.4 0.6z"/>
 </g>
 <g class="st3" transform="translate(-44.6,-44.6)">
  <g class="st4">
   <line class="st5" x2="366.9" y1="67.2" y2="67.2"/>
  </g>
  <line class="st6" x2="366.9" y1="113.6" y2="113.6"/>
  <line class="st7" x1="44.6" x2="44.6" y1="185.9"/>
  <line class="st7" x1="115.2" x2="115.2" y1="185.9"/>
  <line class="st8" x1="196.9" x2="196.9" y1="185.9"/>
  <line class="st8" x1="229.1" x2="229.1" y1="185.9"/>
  <line class="st8" x1="234.6" x2="234.6" y1="185.9"/>
  <line class="st7" x1="307.3" x2="307.3" y1="185.9"/>
  <line class="st7" x1="313.8" x2="313.8" y2="185.9"/>
  <line class="st7" x1="322.2" x2="322.2" y2="185.9"/>
  <g class="st4">
   <line class="st9" x1="38.6" x2="38.6" y1="46.3" y2="138.4"/>
   <rect class="st10" x="37.7" y="46.2" width="2" height=".3"/>
   <rect class="st10" x="37.7" y="138.3" width="2" height=".3"/>
  </g>
  <path class="st11" d="m308.4 164.4h0.1 0.2l0.1-0.1 0.5-1.6v-0.1-0.1-0.1h-0.1-0.2 0.2c0.1 0 0.2 0 0.3-0.1h0.1l-0.5 2s0 0.1 0.1 0.1h0.2z"/>
  <path class="st11" d="m310.7 162.3h0.2l-0.8 2.2h-0.2z"/>
  <path class="st11" d="m311 164.4c-0.1 0-0.2-0.1-0.2-0.2v-0.1h0.1s0.1 0 0.2 0.1 0.2 0.1 0.2 0.1c0.1 0 0.3-0.1 0.4-0.2s0.2-0.3 0.2-0.5-0.1-0.4-0.2-0.5-0.3-0.1-0.5-0.2v0.1l0.3-0.7h0.9l-0.1 0.2h-0.8l-0.1 0.3c0.2 0 0.4 0.1 0.6 0.2 0.1 0.1 0.2 0.3 0.2 0.5s-0.1 0.5-0.3 0.7-0.4 0.3-0.7 0.3c-0.1 0-0.1 0-0.2-0.1z"/>
  <path class="st11" d="m309.6 166.3c-0.1 0.1-0.2 0.2-0.2 0.3l-0.3 0.6c-0.1 0.2-0.1 0.4-0.1 0.6v0.4 0.4c0 0.1 0.1 0.3 0.1 0.5h-0.1l-0.3-0.6c-0.1-0.2-0.1-0.4-0.1-0.6 0-0.3 0-0.5 0.1-0.7 0.2-0.4 0.5-0.7 0.9-0.9z"/>
  <path class="st11" d="m309.6 168.9v0h0.2 0.1c0.1 0 0.1-0.1 0.3-0.2s0.2-0.2 0.2-0.3 0-0.2-0.1-0.4c0-0.2-0.1-0.3-0.1-0.5-0.1-0.2-0.1-0.3-0.1-0.4s-0.1-0.1-0.2-0.1h-0.1l0.4-0.1s0.1 0.1 0.2 0.4c0.1 0.2 0.1 0.4 0.1 0.5l0.1 0.4c0.1-0.2 0.2-0.3 0.2-0.4 0.1-0.2 0.2-0.3 0.2-0.4v-0.1h-0.1v-0.1-0.1h0.1 0.1s0.1 0.1 0.1 0.2-0.1 0.3-0.2 0.6l-0.3 0.6c-0.2 0.2-0.3 0.4-0.4 0.5-0.2 0.2-0.3 0.3-0.4 0.3h-0.1s-0.3-0.3-0.2-0.4c-0.1 0-0.1 0 0 0z"/>
  <path class="st11" d="m311.1 169 0.3-0.3c0.1-0.2 0.2-0.3 0.3-0.6 0.1-0.2 0.1-0.4 0.1-0.5v-0.5-0.5c0-0.1-0.1-0.3-0.1-0.4h0.1c0.1 0.2 0.2 0.4 0.2 0.6 0.1 0.2 0.1 0.4 0.1 0.6s0 0.5-0.1 0.6c-0.2 0.4-0.4 0.7-0.9 1z"/>
  <path class="st11" d="m229.7 164.4h0.1 0.2l0.1-0.1 0.5-1.6v-0.1-0.1-0.1h-0.1-0.2 0.2c0.1 0 0.2 0 0.3-0.1h0.1l-0.5 2s0 0.1 0.1 0.1h0.2z"/>
  <path class="st11" d="m232 162.3h0.2l-0.8 2.2h-0.2z"/>
  <path class="st11" d="m230.9 166.3c-0.1 0.1-0.2 0.2-0.2 0.3l-0.3 0.6c-0.1 0.2-0.1 0.4-0.1 0.6v0.4 0.4c0 0.1 0.1 0.3 0.1 0.5h-0.1l-0.3-0.6c-0.1-0.2-0.1-0.4-0.1-0.6 0-0.3 0-0.5 0.1-0.7 0.2-0.4 0.5-0.7 0.9-0.9z"/>
  <path class="st11" d="m230.9 168.9v0h0.2 0.1c0.1 0 0.1-0.1 0.3-0.2s0.2-0.2 0.2-0.3 0-0.2-0.1-0.4c0-0.2-0.1-0.3-0.1-0.5-0.1-0.2-0.1-0.3-0.1-0.4s-0.1-0.1-0.2-0.1h-0.1l0.4-0.1s0.1 0.1 0.2 0.4c0.1 0.2 0.1 0.4 0.1 0.5l0.1 0.4c0.1-0.2 0.2-0.3 0.2-0.4 0.1-0.2 0.2-0.3 0.2-0.4v-0.1h-0.1v-0.1-0.1h0.1 0.1s0.1 0.1 0.1 0.2-0.1 0.3-0.2 0.6l-0.3 0.6c-0.2 0.2-0.3 0.4-0.4 0.5-0.2 0.2-0.3 0.3-0.4 0.3h-0.1s-0.3-0.3-0.2-0.4c-0.1 0 0 0 0 0z"/>
  <path class="st11" d="m232.5 169 0.3-0.3c0.1-0.2 0.2-0.3 0.3-0.6 0.1-0.2 0.1-0.4 0.1-0.5v-0.5-0.5c0-0.1-0.1-0.3-0.1-0.4h0.1c0.1 0.2 0.2 0.4 0.2 0.6 0.1 0.2 0.1 0.4 0.1 0.6s0 0.5-0.1 0.6c-0.3 0.4-0.5 0.7-0.9 1z"/>
  <path class="st11" d="m121.5 162.3c-0.1 0.1-0.2 0.2-0.2 0.3l-0.3 0.6c-0.1 0.2-0.1 0.4-0.1 0.6v0.4 0.4c0 0.1 0.1 0.3 0.1 0.5h-0.1l-0.3-0.6c-0.1-0.2-0.1-0.4-0.1-0.6 0-0.3 0-0.5 0.1-0.7 0.2-0.4 0.5-0.7 0.9-0.9z"/>
  <path class="st11" d="m121.5 164.2h0.1 0.1 0.1c0.1 0 0.1-0.1 0.1-0.1 0-0.1 0.1-0.2 0.3-0.4v-0.2c0-0.1 0-0.2-0.1-0.3s0-0.1-0.1-0.2h-0.1-0.1-0.1l0.2-0.1h0.1 0.1 0.1s0.1 0.1 0.1 0.3v0.2c0.1-0.1 0.2-0.3 0.2-0.3 0-0.1 0.1-0.1 0.1-0.1h0.1 0.1l0.1 0.1v0.1h-0.1l-0.2 0.2c-0.1 0.1-0.1 0.2-0.1 0.2v0.2c0 0.1 0 0.2 0.1 0.3 0 0.1 0 0.2 0.1 0.2 0 0.1 0.1 0.1 0.1 0.1h0.1s0.1-0.1 0.1-0.2c0 0.1-0.1 0.2-0.1 0.2-0.1 0.1-0.2 0.2-0.3 0.2s-0.1 0-0.1-0.1c0 0 0-0.1-0.1-0.1l-0.1-0.4-0.3 0.4-0.2 0.2h-0.1c-0.1 0-0.1 0-0.1-0.1-0.2-0.1-0.2-0.1-0.1-0.3-0.1 0.1-0.1 0.1 0 0z"/>
  <path class="st11" d="m123.1 165 0.3-0.3c0.1-0.2 0.2-0.3 0.3-0.6 0.1-0.2 0.1-0.4 0.1-0.5v-0.5-0.5c0-0.1-0.1-0.3-0.1-0.4h0.1c0.1 0.2 0.2 0.4 0.2 0.6 0.1 0.2 0.1 0.4 0.1 0.6s0 0.5-0.1 0.6c-0.3 0.4-0.5 0.7-0.9 1z"/>
  <path class="st11" d="m138.2 164.4h0.1 0.2l0.1-0.1 0.5-1.6v-0.1-0.1-0.1h-0.1-0.2 0.2c0.1 0 0.2 0 0.3-0.1h0.1l-0.5 2s0 0.1 0.1 0.1h0.2z"/>
  <path class="st11" d="m140.1 164.4-0.1-0.1c0-0.1 0-0.1 0.1-0.1s0.1-0.1 0.1-0.1 0.1 0 0.1 0.1 0.1 0.1 0.1 0.1c0 0.1 0 0.1-0.1 0.1l-0.1 0.1-0.1-0.1z"/>
  <path class="st11" d="m140.7 164.4c-0.1 0-0.2-0.1-0.2-0.2v-0.1h0.1s0.1 0 0.2 0.1 0.2 0.1 0.2 0.1c0.1 0 0.3-0.1 0.4-0.2s0.2-0.3 0.2-0.5-0.1-0.4-0.2-0.5-0.3-0.1-0.5-0.2v0.1l0.3-0.7h0.9l-0.1 0.2h-0.8l-0.1 0.3c0.2 0 0.4 0.1 0.6 0.2 0.1 0.1 0.2 0.3 0.2 0.5s-0.1 0.5-0.3 0.7-0.4 0.3-0.7 0.3c0 0-0.1 0-0.2-0.1z"/>
  <path class="st11" d="m144.1 162.3c-0.1 0.1-0.2 0.2-0.2 0.3l-0.3 0.6c-0.1 0.2-0.1 0.4-0.1 0.6v0.4 0.4c0 0.1 0.1 0.3 0.1 0.5h-0.1l-0.3-0.6c-0.1-0.2-0.1-0.4-0.1-0.6 0-0.3 0-0.5 0.1-0.7 0.2-0.4 0.5-0.7 0.9-0.9z"/>
  <path class="st11" d="m144.1 164.2h0.1 0.1 0.1l0.1-0.1c0-0.1 0.1-0.2 0.3-0.4v-0.2c0-0.1 0-0.2-0.1-0.3s0-0.1-0.1-0.2h-0.1-0.1-0.1l0.2-0.1h0.1 0.1 0.1s0.1 0.1 0.1 0.3v0.2c0.1-0.1 0.2-0.3 0.2-0.3 0-0.1 0.1-0.1 0.1-0.1h0.1 0.1l0.1 0.1v0.1h-0.1l-0.2 0.2c-0.1 0.1-0.1 0.2-0.1 0.2v0.2c0 0.1 0 0.2 0.1 0.3 0 0.1 0 0.2 0.1 0.2 0 0.1 0.1 0.1 0.1 0.1h0.1s0.1-0.1 0.1-0.2c0 0.1-0.1 0.2-0.1 0.2-0.1 0.1-0.2 0.2-0.3 0.2s-0.1 0-0.1-0.1c0 0 0-0.1-0.1-0.1l-0.1-0.4-0.3 0.4-0.2 0.2h-0.1c-0.1 0-0.1 0-0.1-0.1-0.1-0.1-0.2-0.1-0.1-0.3-0.1 0.1 0 0.1 0 0z"/>
  <path class="st11" d="m145.7 165 0.3-0.3c0.1-0.2 0.2-0.3 0.3-0.6 0.1-0.2 0.1-0.4 0.1-0.5v-0.5-0.5c0-0.1-0.1-0.3-0.1-0.4h0.1c0.1 0.2 0.2 0.4 0.2 0.6 0.1 0.2 0.1 0.4 0.1 0.6s0 0.5-0.1 0.6c-0.3 0.4-0.5 0.7-0.9 1z"/>
  <path class="st11" d="m212.2 162.3c-0.1 0.1-0.2 0.2-0.2 0.3l-0.3 0.6c-0.1 0.2-0.1 0.4-0.1 0.6v0.4 0.4c0 0.1 0.1 0.3 0.1 0.5h-0.1l-0.3-0.6c-0.1-0.2-0.1-0.4-0.1-0.6 0-0.3 0-0.5 0.1-0.7 0.2-0.4 0.5-0.7 0.9-0.9z"/>
  <path class="st11" d="m212.2 164.9h0.2 0.1c0.1 0 0.1-0.1 0.3-0.2s0.2-0.2 0.2-0.3 0-0.2-0.1-0.4c0-0.2-0.1-0.3-0.1-0.5-0.1-0.2-0.1-0.3-0.1-0.4s-0.1-0.1-0.2-0.1h-0.1v-0.1l0.4-0.1s0.1 0.1 0.2 0.4c0.1 0.2 0.1 0.4 0.1 0.5l0.1 0.4c0.1-0.2 0.2-0.3 0.2-0.4 0.1-0.2 0.2-0.3 0.2-0.4v-0.1h-0.1v-0.1-0.1h0.1 0.1s0.1 0.1 0.1 0.2-0.1 0.3-0.2 0.6l-0.3 0.6c-0.2 0.2-0.3 0.4-0.4 0.5-0.2 0.2-0.3 0.3-0.4 0.3h-0.1s-0.2-0.2-0.2-0.3z"/>
  <path class="st11" d="m213.8 165 0.3-0.3c0.1-0.2 0.2-0.3 0.3-0.6 0.1-0.2 0.1-0.4 0.1-0.5v-0.5-0.5c0-0.1-0.1-0.3-0.1-0.4h0.1c0.1 0.2 0.2 0.4 0.2 0.6 0.1 0.2 0.1 0.4 0.1 0.6s0 0.5-0.1 0.6c-0.3 0.4-0.5 0.7-0.9 1z"/>
  <path class="st11" d="m29.2 96.4c0.1 0 0.1 0 0 0l0.2 0.1s0.1 0 0.1 0.1h0.1c0.1 0 0.2-0.1 0.3-0.2s0.1-0.2 0.1-0.4 0-0.3-0.1-0.4-0.2-0.1-0.4-0.1v-0.1c0.3 0 0.5-0.1 0.6-0.2s0.2-0.2 0.2-0.3 0-0.1-0.1-0.2c0-0.1-0.1-0.1-0.2-0.1s-0.1 0-0.2 0.1c-0.1 0-0.1 0.1-0.2 0.2h-0.1c0.1-0.1 0.1-0.2 0.2-0.3s0.2-0.1 0.3-0.1 0.3 0 0.3 0.1 0.1 0.2 0.1 0.3-0.1 0.2-0.2 0.3-0.2 0.1-0.4 0.2c0.1 0 0.1 0.1 0.2 0.1 0.1 0.1 0.1 0.2 0.1 0.4s-0.1 0.4-0.3 0.6-0.4 0.3-0.7 0.3h-0.2c-0.1 0-0.2-0.1-0.2-0.2v-0.1c0.4-0.1 0.4-0.2 0.5-0.1v0z"/>
  <path class="st11" d="m31.7 94.5c-0.1 0.1-0.2 0.2-0.2 0.3l-0.3 0.6c-0.1 0.2-0.1 0.4-0.1 0.6v0.4 0.4c0 0.1 0.1 0.3 0.1 0.5h-0.1l-0.3-0.6c-0.1-0.2-0.1-0.4-0.1-0.6 0-0.3 0-0.5 0.1-0.7 0.2-0.4 0.5-0.7 0.9-0.9z"/>
  <path class="st11" d="m31.7 97.1v0h0.2 0.1c0.1 0 0.1-0.1 0.3-0.2s0.2-0.2 0.2-0.3 0-0.2-0.1-0.4c0-0.2-0.1-0.3-0.1-0.5-0.1-0.2-0.1-0.3-0.1-0.4s-0.1-0.1-0.2-0.1h-0.1v-0.1l0.4-0.1s0.1 0.1 0.2 0.4c0.1 0.2 0.1 0.4 0.1 0.5l0.1 0.4c0.1-0.2 0.2-0.3 0.2-0.4 0.1-0.2 0.2-0.3 0.2-0.4v-0.1h-0.1v-0.1-0.1h0.1 0.1s0.1 0.1 0.1 0.2-0.1 0.3-0.2 0.6l-0.3 0.6c-0.2 0.2-0.3 0.4-0.4 0.5-0.2 0.2-0.3 0.3-0.4 0.3h-0.1s-0.2-0.2-0.2-0.3z"/>
  <path class="st11" d="m33.3 97.2 0.3-0.3c0.1-0.2 0.2-0.3 0.3-0.6 0.1-0.2 0.1-0.4 0.1-0.5v-0.5-0.5c0-0.1-0.1-0.3-0.1-0.4h0.1c0.1 0.2 0.2 0.4 0.2 0.6 0.1 0.2 0.1 0.4 0.1 0.6s0 0.5-0.1 0.6c-0.3 0.4-0.5 0.7-0.9 1z"/>
  <line class="st8" x1="130.2" x2="130.2" y2="185.9"/>
  <line class="st8" x1="152.7" x2="152.7" y1="185.9"/>
  <path class="st11" d="m333.1 177.2h0.3v1h1.2v-1h0.3v2.2h-0.3v-1h-1.2v1h-0.3z"/>
  <path class="st11" d="m335.3 178.6c0-0.5 0.3-0.9 0.7-0.9 0.3 0 0.7 0.2 0.7 0.8v0.1h-1.2c0 0.4 0.2 0.5 0.5 0.5 0.2 0 0.3-0.1 0.4-0.3l0.2 0.1c-0.1 0.2-0.3 0.4-0.7 0.4-0.4 0.1-0.6-0.2-0.6-0.7zm1.1-0.2c0-0.3-0.2-0.5-0.4-0.5-0.3 0-0.5 0.2-0.5 0.5z"/>
  <path class="st11" d="m337 177.3c0-0.1 0.1-0.2 0.2-0.2s0.2 0.1 0.2 0.2-0.1 0.2-0.2 0.2-0.2-0.1-0.2-0.2zm0.1 0.4h0.3v1.6h-0.3z"/>
  <path class="st11" d="m337.8 179.7 0.2-0.1c0.1 0.1 0.2 0.2 0.5 0.2s0.5-0.1 0.5-0.4v-0.3c-0.1 0.1-0.2 0.3-0.5 0.3-0.4 0-0.7-0.3-0.7-0.8s0.3-0.8 0.7-0.8c0.3 0 0.4 0.2 0.5 0.3v-0.3h0.2v1.7c0 0.4-0.3 0.6-0.7 0.6-0.4-0.1-0.6-0.2-0.7-0.4zm1.1-1.1c0-0.4-0.2-0.6-0.5-0.6s-0.5 0.3-0.5 0.6 0.2 0.6 0.5 0.6c0.3-0.1 0.5-0.3 0.5-0.6z"/>
  <path class="st11" d="m339.9 179.4h-0.3v-2.2h0.3v0.8c0.1-0.2 0.2-0.3 0.5-0.3s0.6 0.2 0.6 0.6v1h-0.3v-1c0-0.3-0.1-0.4-0.4-0.4-0.2 0-0.4 0.2-0.4 0.4z"/>
  <path class="st11" d="m342.1 178h-0.4v1c0 0.2 0.1 0.2 0.2 0.2h0.1l0.1 0.2h-0.2c-0.2 0-0.4-0.1-0.4-0.4v-1h-0.2v-0.2h0.2v-0.4h0.3v0.4h0.4v0.2z"/>
  <path class="st11" d="m343.2 178.6c0-0.5 0.3-0.9 0.7-0.9s0.7 0.3 0.7 0.9c0 0.5-0.3 0.8-0.7 0.8s-0.7-0.3-0.7-0.8zm1.3 0c0-0.3-0.2-0.6-0.5-0.6s-0.5 0.3-0.5 0.6 0.2 0.6 0.5 0.6 0.5-0.3 0.5-0.6z"/>
  <path class="st11" d="m345.8 178h-0.4v1.4h-0.3v-1.4h-0.1v-0.2h0.3v-0.2c0-0.3 0.2-0.4 0.5-0.4h0.2l-0.1 0.2h-0.1c-0.2 0-0.2 0.1-0.2 0.2v0.2h0.4v0.2z"/>
  <path class="st11" d="m347 178c0-0.5 0.4-0.9 0.9-0.9s0.9 0.4 0.9 0.9-0.4 0.9-0.9 0.9c-0.6 0-0.9-0.4-0.9-0.9zm1.5 0c0-0.4-0.3-0.6-0.6-0.6-0.4 0-0.7 0.3-0.7 0.6 0 0.4 0.3 0.6 0.7 0.6 0.3 0.1 0.6-0.2 0.6-0.6zm-1-0.4h0.4c0.1 0 0.2 0.1 0.2 0.3 0 0.1-0.1 0.2-0.1 0.2l0.2 0.3h-0.2l-0.1-0.3h-0.2v0.3h-0.2zm0.4 0.4s0.1 0 0.1-0.1-0.1-0.1-0.1-0.1h-0.2v0.3h0.2z"/>
  <path class="st11" d="m333.2 181.7h1.3v0.2h-1.3zm0 0.6h1.3v0.2h-1.3z"/>
  <path class="st11" d="m336.2 183h-0.3v-2.2h0.3v0.8c0.1-0.2 0.2-0.3 0.5-0.3s0.6 0.2 0.6 0.6v1h-0.3v-1c0-0.3-0.1-0.4-0.4-0.4-0.2 0-0.4 0.2-0.4 0.4z"/>
  <path class="st11" d="m337.6 182.2c0-0.5 0.3-0.9 0.7-0.9 0.3 0 0.7 0.2 0.7 0.8v0.1h-1.2c0 0.4 0.2 0.5 0.5 0.5 0.2 0 0.3-0.1 0.4-0.3l0.2 0.1c-0.1 0.2-0.3 0.4-0.7 0.4-0.3 0.1-0.6-0.2-0.6-0.7zm1.2-0.2c0-0.3-0.2-0.5-0.4-0.5-0.3 0-0.5 0.2-0.5 0.5z"/>
  <path class="st11" d="m339.4 180.9c0-0.1 0.1-0.2 0.2-0.2s0.2 0.1 0.2 0.2-0.1 0.2-0.2 0.2-0.2-0.1-0.2-0.2zm0.1 0.4h0.3v1.6h-0.3z"/>
  <path class="st11" d="m340.2 183.3 0.2-0.1c0.1 0.1 0.2 0.2 0.5 0.2s0.5-0.1 0.5-0.4v-0.3c-0.1 0.1-0.2 0.3-0.5 0.3-0.4 0-0.7-0.3-0.7-0.8s0.3-0.8 0.7-0.8c0.3 0 0.4 0.2 0.5 0.3v-0.3h0.2v1.7c0 0.4-0.3 0.6-0.7 0.6-0.4-0.1-0.6-0.2-0.7-0.4zm1.1-1.1c0-0.4-0.2-0.6-0.5-0.6s-0.5 0.3-0.5 0.6 0.2 0.6 0.5 0.6c0.3-0.1 0.5-0.3 0.5-0.6z"/>
  <path class="st11" d="m342.2 183h-0.2v-2.2h0.3v0.8c0.1-0.2 0.2-0.3 0.5-0.3s0.6 0.2 0.6 0.6v1h-0.3v-1c0-0.3-0.1-0.4-0.4-0.4-0.2 0-0.4 0.2-0.4 0.4v1.1z"/>
  <path class="st11" d="m344.5 181.6h-0.4v1c0 0.2 0.1 0.2 0.2 0.2h0.1l0.1 0.2h-0.2c-0.2 0-0.4-0.1-0.4-0.4v-1h-0.2v-0.2h0.2v-0.4h0.3v0.4h0.4v0.2z"/>
  <path class="st11" d="m345.6 182.2c0-0.5 0.3-0.9 0.7-0.9s0.7 0.3 0.7 0.9c0 0.5-0.3 0.8-0.7 0.8s-0.7-0.3-0.7-0.8zm1.3 0c0-0.3-0.2-0.6-0.5-0.6s-0.5 0.3-0.5 0.6 0.2 0.6 0.5 0.6 0.5-0.3 0.5-0.6z"/>
  <path class="st11" d="m348.2 181.6h-0.4v1.4h-0.3v-1.4h-0.3v-0.2h0.3v-0.2c0-0.3 0.2-0.4 0.5-0.4h0.2l-0.1 0.2h-0.1c-0.2 0-0.2 0.1-0.2 0.2v0.2h0.4z"/>
  <path class="st11" d="m350.1 181.6h-0.4v1c0 0.2 0.1 0.2 0.2 0.2h0.1l0.1 0.2h-0.2c-0.2 0-0.4-0.1-0.4-0.4v-1h-0.2v-0.2h0.2v-0.4h0.3v0.4h0.4v0.2z"/>
  <path class="st11" d="m350.8 183h-0.3v-2.2h0.3v0.8c0.1-0.2 0.2-0.3 0.5-0.3s0.6 0.2 0.6 0.6v1h-0.3v-1c0-0.3-0.1-0.4-0.4-0.4-0.2 0-0.4 0.2-0.4 0.4z"/>
  <path class="st11" d="m352.2 182.2c0-0.5 0.3-0.9 0.7-0.9 0.3 0 0.7 0.2 0.7 0.8v0.1h-1.2c0 0.4 0.2 0.5 0.5 0.5 0.2 0 0.3-0.1 0.4-0.3l0.2 0.1c-0.1 0.2-0.3 0.4-0.7 0.4-0.3 0.1-0.6-0.2-0.6-0.7zm1.2-0.2c0-0.3-0.2-0.5-0.4-0.5-0.3 0-0.5 0.2-0.5 0.5z"/>
  <path class="st11" d="m354.9 180.9c0-0.1 0.1-0.2 0.2-0.2s0.2 0.1 0.2 0.2-0.1 0.2-0.2 0.2c-0.2 0-0.2-0.1-0.2-0.2zm0 0.4h0.3v1.6h-0.3z"/>
  <path class="st11" d="m355.8 181c0 0.2-0.1 0.4-0.3 0.5l-0.1-0.1c0.1-0.1 0.2-0.3 0.2-0.4v-0.2h0.2z"/>
  <path class="st11" d="m356.9 181.8c0-0.1-0.1-0.2-0.4-0.2-0.2 0-0.4 0.1-0.4 0.2s0.1 0.2 0.3 0.2l0.2 0.1c0.3 0.1 0.4 0.2 0.4 0.4 0 0.3-0.3 0.5-0.6 0.5s-0.6-0.1-0.6-0.4l0.2-0.1c0 0.2 0.2 0.3 0.4 0.3s0.4-0.1 0.4-0.3c0-0.1-0.1-0.2-0.2-0.2l-0.3-0.1c-0.3-0.1-0.4-0.2-0.4-0.4 0-0.3 0.3-0.5 0.6-0.5s0.5 0.2 0.6 0.4z"/>
  <path class="st11" d="m358.3 182.2c0-0.5 0.3-0.8 0.7-0.8 0.3 0 0.4 0.2 0.5 0.3v-0.8h0.3v2.2h-0.2v-0.3c-0.1 0.1-0.2 0.3-0.5 0.3-0.5-0.1-0.8-0.4-0.8-0.9zm1.2 0c0-0.4-0.2-0.6-0.5-0.6s-0.5 0.3-0.5 0.6c0 0.4 0.2 0.6 0.5 0.6s0.5-0.3 0.5-0.6z"/>
  <path class="st11" d="m360.1 182.2c0-0.5 0.3-0.9 0.7-0.9s0.7 0.3 0.7 0.9c0 0.5-0.3 0.8-0.7 0.8s-0.7-0.3-0.7-0.8zm1.3 0c0-0.3-0.2-0.6-0.5-0.6s-0.5 0.3-0.5 0.6 0.2 0.6 0.5 0.6 0.5-0.3 0.5-0.6z"/>
  <path class="st11" d="m362.7 181.6h-0.4v1c0 0.2 0.1 0.2 0.2 0.2h0.1l0.1 0.2h-0.2c-0.2 0-0.4-0.1-0.4-0.4v-1h-0.2v-0.2h0.2v-0.4h0.3v0.4h0.4v0.2z"/>
  <path class="st11" d="m232.5 163.7c0.1-0.1 0.2-0.3 0.3-0.4s0.3-0.1 0.4-0.1 0.2 0 0.3 0.1 0.1 0.2 0.1 0.4-0.1 0.4-0.3 0.6-0.4 0.3-0.6 0.3-0.3-0.1-0.5-0.2c-0.1-0.1-0.2-0.3-0.2-0.5 0-0.4 0.1-0.7 0.4-1s0.6-0.5 1-0.5c0.1 0 0.3 0 0.4 0.1l-0.2 0.2c-0.1-0.1-0.3-0.1-0.4-0.1-0.2 0-0.4 0.1-0.6 0.3-0.1 0.1-0.2 0.3-0.2 0.4 0.2 0 0.1 0.2 0.1 0.4zm0.1 0.1c0.1 0.4 0.2 0.5 0.5 0.5 0.1 0 0.2 0 0.3-0.1s0.1-0.2 0.1-0.3c0-0.2 0-0.3-0.1-0.4s-0.2-0.2-0.3-0.2c-0.3 0.1-0.4 0.2-0.5 0.5z"/>
  <line class="st8" x1="191.5" x2="191.5" y1="185.9"/>
  <path class="st11" d="m192.1 164.4h0.1 0.2l0.1-0.1 0.5-1.6v-0.1-0.1-0.1h-0.1-0.2 0.2c0.1 0 0.2 0 0.3-0.1h0.1l-0.5 2s0 0.1 0.1 0.1h0.2z"/>
  <path class="st11" d="m194.4 162.3h0.2l-0.8 2.2h-0.2z"/>
  <path class="st11" d="m193.3 166.3c-0.1 0.1-0.2 0.2-0.2 0.3l-0.3 0.6c-0.1 0.2-0.1 0.4-0.1 0.6v0.4 0.4c0 0.1 0.1 0.3 0.1 0.5h-0.1l-0.3-0.6c-0.1-0.2-0.1-0.4-0.1-0.6 0-0.3 0-0.5 0.1-0.7 0.2-0.4 0.5-0.7 0.9-0.9z"/>
  <path class="st11" d="m193.3 168.9v0h0.2 0.1c0.1 0 0.1-0.1 0.3-0.2s0.2-0.2 0.2-0.3 0-0.2-0.1-0.4c0-0.2-0.1-0.3-0.1-0.5-0.1-0.2-0.1-0.3-0.1-0.4s-0.1-0.1-0.2-0.1h-0.1l0.4-0.1s0.1 0.1 0.2 0.4c0.1 0.2 0.1 0.4 0.1 0.5l0.1 0.4c0.1-0.2 0.2-0.3 0.2-0.4 0.1-0.2 0.2-0.3 0.2-0.4v-0.1h-0.1v-0.1-0.1h0.1 0.1s0.1 0.1 0.1 0.2-0.1 0.3-0.2 0.6l-0.3 0.6c-0.2 0.2-0.3 0.4-0.4 0.5-0.2 0.2-0.3 0.3-0.4 0.3h-0.1s-0.3-0.3-0.2-0.4c-0.1 0-0.1 0 0 0z"/>
  <path class="st11" d="m194.8 169 0.3-0.3c0.1-0.2 0.2-0.3 0.3-0.6 0.1-0.2 0.1-0.4 0.1-0.5v-0.5-0.5c0-0.1-0.1-0.3-0.1-0.4h0.1c0.1 0.2 0.2 0.4 0.2 0.6 0.1 0.2 0.1 0.4 0.1 0.6s0 0.5-0.1 0.6c-0.2 0.4-0.4 0.7-0.9 1z"/>
  <path class="st11" d="m194.9 163.7c0.1-0.1 0.2-0.3 0.3-0.4s0.3-0.1 0.4-0.1 0.2 0 0.3 0.1 0.1 0.2 0.1 0.4-0.1 0.4-0.3 0.6-0.4 0.3-0.6 0.3-0.3-0.1-0.5-0.2c-0.1-0.1-0.2-0.3-0.2-0.5 0-0.4 0.1-0.7 0.4-1s0.6-0.5 1-0.5c0.1 0 0.3 0 0.4 0.1l-0.2 0.2c-0.1-0.1-0.3-0.1-0.4-0.1-0.2 0-0.4 0.1-0.6 0.3-0.1 0.1-0.2 0.3-0.2 0.4 0.2 0 0.1 0.2 0.1 0.4zm0.1 0.1c0.1 0.4 0.2 0.5 0.5 0.5 0.1 0 0.2 0 0.3-0.1s0.1-0.2 0.1-0.3c0-0.2 0-0.3-0.1-0.4s-0.2-0.2-0.3-0.2c-0.3 0.1-0.4 0.2-0.5 0.5z"/>
  <line class="st7" x1="44.6" x2="44.6" y1="185.9"/>
  <path class="st12" d="m152.7 27.4v-27.4h11.5v27.8c0 4.5 2.3 7.6 8 7.6 5.3 0 7.9-3.2 7.9-7.8v-27.6h11.5v27.4c0 10.7-6.4 17.2-19.4 17.2s-19.5-6.3-19.5-17.2z"/>
  <path class="st12" d="m191.5 158.5v27.4h-11.5v-27.8c0-4.5-2.3-7.6-8-7.6-5.3 0-7.9 3.2-7.9 7.8v27.6h-11.5v-27.4c0-10.7 6.4-17.2 19.4-17.2s19.5 6.3 19.5 17.2z"/>
  <path class="st12" d="m27.4 113.6h-27.4v-11.5h27.8c4.5 0 7.6-2.3 7.6-8 0-5.3-3.2-7.9-7.8-7.9h-27.6v-11.4h27.4c10.7 0 17.2 6.4 17.2 19.4 0 12.9-6.3 19.4-17.2 19.4z"/>
  <path class="st12" d="m339.5 74.8h27.4v11.5h-27.8c-4.5 0-7.6 2.3-7.6 8 0 5.3 3.2 7.9 7.8 7.9h27.6v11.5h-27.4c-10.7 0-17.2-6.4-17.2-19.4-0.1-13 6.3-19.5 17.2-19.5z"/>
  <line class="st13" x2="364.8" y1="44.6" y2="44.6"/>
  <line class="st13" x2="366.8" y1="141.3" y2="141.3"/>
 </g>
</svg>