<svg width="320" height="188" version="1.1" viewBox="0 0 320 188" xmlns="http://www.w3.org/2000/svg">
 <g>
  <path d="m41.603 101.69 4.9576-8.5579 10.737 1.7774s-0.20767-17.921-4.8532-20.581c0 0-19.936 29.38-19.908 39.365l-13.439 5.1611 11.541-41.13-10.834 3.4655 0.33832-5.7317 21.897-10.102-4.1719 19.892s14.759-23.966 22.575-21.2c7.8159 2.7667 13.671 28.829-7.0396 42.462z"/>
  <path d="m74.529 102.96-0.48614-16.926-4.331-0.17677 0.53033-3.182s7.0711-0.17678 11.977-4.0659l1.5026 23.335z"/>
  <path d="m83.771 75.234c-0.27002 0.38111-5.2679-1.3654-5.7104-1.2158-0.44246 0.14961-3.3549 4.5708-3.8008 4.4317-0.44589-0.13904-0.32929-5.432-0.6083-5.8066-0.27901-0.37457-5.3838-1.7782-5.3893-2.2453-0.0056-0.46703 5.0644-1.9918 5.3344-2.3729s0.02752-5.6698 0.46998-5.8194c0.44246-0.14961 3.4592 4.201 3.9051 4.3401 0.44589 0.13904 5.4008-1.7259 5.6798-1.3513 0.27901 0.37457-2.9264 4.5881-2.9209 5.0552 0.0056 0.46704 3.3104 4.6031 3.0403 4.9842z"/>
  <path d="m87.611 78.672 9.8995-2.7179s13.17 15.601 12.816 24.572l-6.9385 3.6018c-0.17678-6.9164-15.777-25.456-15.777-25.456z"/>
  <path d="m106.39 77.634 6.8943 0.13258s-18.075 24.263-20.815 25.456l-4.552 0.41984c0.83333-1.0497 18.473-26.008 18.473-26.008z"/>
  <path d="m119.6 101.51-0.48613-16.926-4.331-0.17677 0.53033-3.182s7.0711-0.17678 11.977-4.0659l1.5026 23.335z"/>
  <path d="m128.84 73.784c-0.27002 0.3811-5.2679-1.3654-5.7104-1.2158-0.44246 0.14961-3.3549 4.5708-3.8008 4.4317s-0.32929-5.432-0.6083-5.8066-5.3838-1.7782-5.3894-2.2453c-6e-3 -0.46703 5.0644-1.9918 5.3344-2.3729 0.27002-0.3811 0.0275-5.6698 0.46997-5.8194 0.44246-0.14961 3.4592 4.201 3.9052 4.3401 0.44589 0.13904 5.4008-1.7259 5.6798-1.3513 0.27902 0.37457-2.9264 4.5881-2.9209 5.0552 6e-3 0.46704 3.3104 4.6031 3.0403 4.9842z"/>
  <path d="m155.21 90.749c-17.078 7.81-22.598-15.641-12.928-8.5279 5.7235-8.1323 5.4547 5.1909 2.2699 8.4396 0 0 5.4654 2.3261 11.121-2.3185 0.5408-11.75-3.9591-12.765-3.9591-12.765l-12.56-0.32955c-7.4586-0.1957-6.0074 10.195-4.1038 16.651 5.6574 19.188 20.16-1.15 20.16-1.15z"/>
  <path d="m182.11 97.514 4.9576-8.5579 10.737 1.7774s-0.20767-17.921-4.8532-20.581c0 0-19.936 29.38-19.908 39.365l-13.439 5.1611 11.541-41.13-10.834 3.4655 0.33833-5.7317 21.897-10.102-4.1719 19.892s14.759-23.966 22.575-21.2c7.8159 2.7667 13.671 28.829-7.0396 42.462z"/>
  <path d="m254.21 113.07" stroke="#000" stroke-width="1px"/>
  <path d="m257.74 93.529-0.80165 5.4942s17.934-9.6726 33.403 4.736c4.5574 4.245-3.3695 10.93-8.2146 6.2582-5.8623-5.6522-19.129-10.209-27.584 3.3326l-0.94822-8.2212c-9.0636 4.8791-8.3732 20.336-7.3463 25.45 0 0-4.3782 8.9681 2.5167 1.791 6.1538 0.44162 18.243 0.31418 23.104-8.1008 0 0-3.7394-3.7755-8.3701-3.4743 0 0 4.9743-6.1358 13.337-1.2529 8.363 4.8829 17.537 1.4556 20.41-3.5417 2.8238-4.9119 3.82-13.114-3.875-18.779 0 0-17.781-12.672-35.631-3.6924z"/>
  <path d="m238.02 97.01-9.491 1.981-0.0857-5.0622s-15.215 11.65-15.247 0.69481l-0.0547-18.781 9.2074-2.5109s-1.3408 21.131 2.7736 18.8 2.7306-17.888 2.7306-17.888 6.9705 0.70293 9.3871-0.61306z"/>
  <path d="m243.61 76.297 8.2353-3.2252-0.1084 3.6255s15.414-9.5615 14.924 0.33013l-0.85834 17.293-8.8159 4.7029s2.7885-20.844-1.0815-21.509c-5.2488-0.90256-3.3891 19.117-3.3891 19.117l-9.0121 1.3689z"/>
  <path d="m292.66 72.072s1.8887 2.9914-4.3851 11.458c0 0 6.4372-0.092 9.4588 7.049l-5.6428 7.3712s-3.0888-5.7359-8.4743-8.0238l-3.1058 4.2018-8.9724-2.7822 0.44873-29.679 10.405-2.3602c-3.0637 2.9071-1.5911 29.883-1.5911 29.883s3.0585-4.8707 3.8591-15.548z"/>
 </g>
</svg>
