<?xml version="1.0" encoding="UTF-8" standalone="no"?>
<svg
   xmlns:dc="http://purl.org/dc/elements/1.1/"
   xmlns:cc="http://creativecommons.org/ns#"
   xmlns:rdf="http://www.w3.org/1999/02/22-rdf-syntax-ns#"
   xmlns:svg="http://www.w3.org/2000/svg"
   xmlns="http://www.w3.org/2000/svg"
   xmlns:sodipodi="http://sodipodi.sourceforge.net/DTD/sodipodi-0.dtd"
   xmlns:inkscape="http://www.inkscape.org/namespaces/inkscape"
   version="1.1"
   id="svg10"
   width="320"
   height="188"
   viewBox="0 0 320 188"
   sodipodi:docname="pixiepunk_short.svg"
   inkscape:version="1.0.1 (3bc2e813f5, 2020-09-07)">
  <metadata
     id="metadata16">
    <rdf:RDF>
      <cc:Work
         rdf:about="">
        <dc:format>image/svg+xml</dc:format>
        <dc:type
           rdf:resource="http://purl.org/dc/dcmitype/StillImage" />
        <dc:title />
      </cc:Work>
    </rdf:RDF>
  </metadata>
  <defs
     id="defs14" />
  <sodipodi:namedview
     pagecolor="#ffffff"
     bordercolor="#666666"
     borderopacity="1"
     objecttolerance="10"
     gridtolerance="10"
     guidetolerance="10"
     inkscape:pageopacity="0"
     inkscape:pageshadow="2"
     inkscape:window-width="1902"
     inkscape:window-height="983"
     id="namedview12"
     showgrid="false"
     inkscape:zoom="2"
     inkscape:cx="124.22842"
     inkscape:cy="166.18494"
     inkscape:window-x="0"
     inkscape:window-y="0"
     inkscape:window-maximized="0"
     inkscape:current-layer="svg10"
     inkscape:snap-others="true"
     inkscape:snap-smooth-nodes="false"
     inkscape:document-rotation="0" />
  <g
     inkscape:groupmode="layer"
     id="layer1"
     inkscape:label="Black"
     style="display:inline" />
  <path
     style="fill:#000000;fill-opacity:1;stroke:none;stroke-width:1px;stroke-linecap:butt;stroke-linejoin:miter;stroke-opacity:1"
     d="m 68.472692,74.531536 4.957621,-8.55787 10.737144,1.77736 c 0,0 -0.207669,-17.92071 -4.853219,-20.580637 0,0 -19.93599,29.379707 -19.908024,39.364517 l -13.439333,5.16109 11.54058,-41.12951 -10.833974,3.4655 0.338323,-5.7317 21.896605,-10.101914 -4.171884,19.892334 c 0,0 14.759113,-23.966235 22.574999,-21.199559 7.815886,2.766677 13.67067,28.828759 -7.039638,42.462219 z"
     id="path34"
     sodipodi:nodetypes="cccccccccccscc"
     inkscape:export-xdpi="2234.1799"
     inkscape:export-ydpi="2234.1799" />
  <path
     style="fill:#000000;fill-opacity:1;stroke:none;stroke-width:1px;stroke-linecap:butt;stroke-linejoin:miter;stroke-opacity:1"
     d="m 101.39922,75.795916 -0.48613,-16.92637 -4.331034,-0.17677 0.53033,-3.18198 c 0,0 7.071064,-0.17678 11.976624,-4.06587 l 1.5026,23.33453 z"
     id="path865"
     inkscape:export-xdpi="2234.1799"
     inkscape:export-ydpi="2234.1799" />
  <path
     sodipodi:type="star"
     style="opacity:1;fill:#000000;fill-opacity:1;stroke:none"
     id="path877"
     sodipodi:sides="5"
     sodipodi:cx="103.67178"
     sodipodi:cy="43.135036"
     sodipodi:r1="8.5406313"
     sodipodi:r2="3.9286904"
     sodipodi:arg1="0.61642135"
     sodipodi:arg2="1.2447399"
     inkscape:flatsided="false"
     inkscape:rounded="0.08"
     inkscape:randomized="0"
     d="m 110.64053,48.072536 c -0.27002,0.381106 -5.26789,-1.365407 -5.71035,-1.215801 -0.44246,0.149607 -3.35488,4.570785 -3.80078,4.431748 -0.44589,-0.139037 -0.32928,-5.431998 -0.6083,-5.806571 -0.27901,-0.374573 -5.383787,-1.778234 -5.389343,-2.245268 -0.0056,-0.467035 5.064383,-1.991752 5.334403,-2.372858 0.27002,-0.381105 0.0275,-5.669793 0.46998,-5.819399 0.44246,-0.149607 3.45924,4.201027 3.90514,4.340064 0.44589,0.139037 5.4008,-1.725891 5.67981,-1.351318 0.27901,0.374573 -2.92645,4.58813 -2.92089,5.055164 0.006,0.467035 3.31035,4.603134 3.04033,4.984239 z"
     inkscape:transform-center-x="0.77779627"
     inkscape:transform-center-y="0.031118404"
     inkscape:export-xdpi="2234.1799"
     inkscape:export-ydpi="2234.1799" />
  <path
     style="fill:#000000;fill-opacity:1;stroke:none;stroke-width:1px;stroke-linecap:butt;stroke-linejoin:miter;stroke-opacity:1"
     d="m 114.4807,51.511216 9.89949,-2.71794 c 0,0 13.16987,15.60055 12.81631,24.57196 l -6.93848,3.60182 c -0.17678,-6.91638 -15.77732,-25.45584 -15.77732,-25.45584 z"
     id="path879"
     sodipodi:nodetypes="ccccc"
     inkscape:export-xdpi="2234.1799"
     inkscape:export-ydpi="2234.1799" />
  <path
     style="fill:#000000;fill-opacity:1;stroke:none;stroke-width:1px;stroke-linecap:butt;stroke-linejoin:miter;stroke-opacity:1"
     d="m 133.26322,50.472656 6.89429,0.13258 c 0,0 -18.07541,24.26261 -20.81545,25.45585 l -4.552,0.41984 c 0.83332,-1.04974 18.47316,-26.00827 18.47316,-26.00827 z"
     id="path883"
     sodipodi:nodetypes="ccccc"
     inkscape:export-xdpi="2234.1799"
     inkscape:export-ydpi="2234.1799" />
  <path
     style="fill:#000000;fill-opacity:1;stroke:none;stroke-width:1px;stroke-linecap:butt;stroke-linejoin:miter;stroke-opacity:1"
     d="m 146.46735,74.345886 -0.48613,-16.92637 -4.33103,-0.17677 0.53033,-3.18198 c 0,0 7.07107,-0.17678 11.97662,-4.06587 l 1.5026,23.33453 z"
     id="path865-2"
     inkscape:export-xdpi="2234.1799"
     inkscape:export-ydpi="2234.1799" />
  <path
     sodipodi:type="star"
     style="opacity:1;fill:#000000;fill-opacity:1;stroke:none"
     id="path877-9"
     sodipodi:sides="5"
     sodipodi:cx="148.73993"
     sodipodi:cy="41.685001"
     sodipodi:r1="8.5406313"
     sodipodi:r2="3.9286904"
     sodipodi:arg1="0.61642135"
     sodipodi:arg2="1.2447399"
     inkscape:flatsided="false"
     inkscape:rounded="0.08"
     inkscape:randomized="0"
     d="m 155.70868,46.622501 c -0.27002,0.381106 -5.26789,-1.365407 -5.71035,-1.215801 -0.44246,0.149607 -3.35489,4.570785 -3.80078,4.431748 -0.44589,-0.139037 -0.32929,-5.431998 -0.6083,-5.806571 -0.27901,-0.374573 -5.38379,-1.778234 -5.38935,-2.245269 -0.006,-0.467034 5.06438,-1.991752 5.3344,-2.372857 0.27002,-0.381105 0.0275,-5.669793 0.46998,-5.8194 0.44246,-0.149606 3.45925,4.201028 3.90514,4.340065 0.4459,0.139037 5.4008,-1.725891 5.67981,-1.351318 0.27901,0.374573 -2.92645,4.58813 -2.92089,5.055164 0.006,0.467035 3.31036,4.603134 3.04034,4.984239 z"
     inkscape:transform-center-x="0.77779627"
     inkscape:transform-center-y="0.031118404"
     inkscape:export-xdpi="2234.1799"
     inkscape:export-ydpi="2234.1799" />
  <path
     style="fill:#000000;fill-opacity:1;stroke:none;stroke-width:1px;stroke-linecap:butt;stroke-linejoin:miter;stroke-opacity:1"
     d="m 182.07914,63.587726 c -17.07806,7.80996 -22.59806,-15.64119 -12.92794,-8.52787 5.7235,-8.13227 5.4547,5.19089 2.26991,8.43958 0,0 5.46539,2.32611 11.12055,-2.31851 0.5408,-11.75026 -3.95906,-12.76506 -3.95906,-12.76506 l -12.5601,-0.32955 c -7.45858,-0.1957 -6.0074,10.19513 -4.10384,16.65144 5.65736,19.18811 20.16048,-1.15003 20.16048,-1.15003 z"
     id="path905"
     sodipodi:nodetypes="cccccssc"
     inkscape:export-xdpi="2234.1799"
     inkscape:export-ydpi="2234.1799" />
  <path
     style="fill:#000000;fill-opacity:1;stroke:none;stroke-width:1px;stroke-linecap:butt;stroke-linejoin:miter;stroke-opacity:1"
     d="m 109.85594,115.51409 4.95762,-8.55787 10.73714,1.77736 c 0,0 -0.20767,-17.92071 -4.85322,-20.580637 0,0 -19.93599,29.379707 -19.90802,39.364517 l -13.43933,5.16109 11.54058,-41.12951 -10.83398,3.4655 0.33833,-5.7317 21.8966,-10.101914 -4.17188,19.892334 c 0,0 14.75911,-23.966235 22.575,-21.199559 7.81588,2.766677 13.67066,28.828759 -7.03964,42.462219 z"
     id="path34-1"
     sodipodi:nodetypes="cccccccccccscc"
     inkscape:export-xdpi="2234.1799"
     inkscape:export-ydpi="2234.1799" />
  <path
     style="fill:#000000;fill-opacity:1;stroke:#000000;stroke-width:1px;stroke-linecap:butt;stroke-linejoin:miter;stroke-opacity:1"
     d="M 181.95832,131.06925 Z"
     id="path940"
     inkscape:export-xdpi="2234.1799"
     inkscape:export-ydpi="2234.1799" />
  <path
     style="fill:#000000;fill-opacity:1;stroke:none;stroke-width:1px;stroke-linecap:butt;stroke-linejoin:miter;stroke-opacity:1"
     d="m 185.49314,111.52943 -0.80165,5.4942 c 0,0 17.9341,-9.67256 33.40271,4.736 4.55735,4.24504 -3.36952,10.92957 -8.21455,6.25822 -5.86228,-5.65215 -19.1286,-10.20882 -27.58367,3.33256 l -0.94822,-8.22116 c -9.06364,4.87912 -8.37319,20.33571 -7.34626,25.45008 0,0 -4.37825,8.96807 2.51671,1.79105 6.15381,0.44162 18.24282,0.31418 23.10364,-8.10078 0,0 -3.73937,-3.77553 -8.37006,-3.4743 0,0 4.97431,-6.13581 13.33735,-1.2529 8.36304,4.8829 17.53713,1.45558 20.41004,-3.54166 2.82382,-4.91186 3.81996,-13.1135 -3.87503,-18.77888 0,0 -17.78091,-12.67192 -35.63101,-3.69243 z"
     id="path952"
     sodipodi:nodetypes="ccssccccccsscc"
     inkscape:export-xdpi="2234.1799"
     inkscape:export-ydpi="2234.1799" />
  <path
     style="fill:#000000;fill-opacity:1;stroke:none;stroke-width:1px;stroke-linecap:butt;stroke-linejoin:miter;stroke-opacity:1"
     d="m 165.76938,115.01026 -9.49103,1.98098 -0.0857,-5.06217 c 0,0 -15.21507,11.64958 -15.24698,0.69481 l -0.0547,-18.78119 9.20735,-2.510931 c 0,0 -1.34077,21.131361 2.7736,18.800001 4.11437,-2.33136 2.73063,-17.88769 2.73063,-17.88769 0,0 6.97047,0.70293 9.38713,-0.613064 z"
     id="path960"
     sodipodi:nodetypes="cccsccsccc"
     inkscape:export-xdpi="2234.1799"
     inkscape:export-ydpi="2234.1799" />
  <path
     style="fill:#000000;fill-opacity:1;stroke:none;stroke-width:1px;stroke-linecap:butt;stroke-linejoin:miter;stroke-opacity:1"
     d="m 171.36211,94.29694 8.23532,-3.225234 -0.1084,3.625534 c 0,0 15.4145,-9.561479 14.92353,0.33013 l -0.85834,17.29317 -8.81586,4.70288 c 0,0 2.78848,-20.84385 -1.0815,-21.50932 -5.24879,-0.90256 -3.38907,19.11728 -3.38907,19.11728 l -9.01213,1.36894 z"
     id="path962"
     sodipodi:nodetypes="cccsccsccc"
     inkscape:export-xdpi="2234.1799"
     inkscape:export-ydpi="2234.1799" />
  <path
     style="fill:#000000;fill-opacity:1;stroke:none;stroke-width:1px;stroke-linecap:butt;stroke-linejoin:miter;stroke-opacity:1"
     d="m 220.40578,90.07237 c 0,0 1.88872,2.99138 -4.38509,11.4577 0,0 6.43715,-0.092 9.45882,7.04895 l -5.64276,7.37123 c 0,0 -3.0888,-5.73592 -8.47433,-8.02379 l -3.10579,4.20176 -8.97243,-2.78217 0.44873,-29.679146 10.4047,-2.360159 c -3.06373,2.907149 -1.59111,29.882595 -1.59111,29.882595 0,0 3.05853,-4.87074 3.8591,-15.547507 z"
     id="path974"
     sodipodi:nodetypes="cccccccccccc"
     inkscape:export-xdpi="2234.1799"
     inkscape:export-ydpi="2234.1799" />
</svg>
