<?xml version="1.0" encoding="UTF-8" standalone="no"?>
<svg
   xmlns:dc="http://purl.org/dc/elements/1.1/"
   xmlns:cc="http://creativecommons.org/ns#"
   xmlns:rdf="http://www.w3.org/1999/02/22-rdf-syntax-ns#"
   xmlns:svg="http://www.w3.org/2000/svg"
   xmlns="http://www.w3.org/2000/svg"
   xmlns:sodipodi="http://sodipodi.sourceforge.net/DTD/sodipodi-0.dtd"
   xmlns:inkscape="http://www.inkscape.org/namespaces/inkscape"
   width="129.02321"
   height="45.020134"
   version="1.1"
   viewBox="0 0 133.69022 33.168134"
   id="svg54"
   sodipodi:docname="wildeSVG_notext.svg"
   inkscape:version="1.0.1 (3bc2e813f5, 2020-09-07)">
  <metadata
     id="metadata60">
    <rdf:RDF>
      <cc:Work
         rdf:about="">
        <dc:format>image/svg+xml</dc:format>
        <dc:type
           rdf:resource="http://purl.org/dc/dcmitype/StillImage" />
        <dc:title></dc:title>
      </cc:Work>
    </rdf:RDF>
  </metadata>
  <defs
     id="defs58" />
  <sodipodi:namedview
     pagecolor="#ffffff"
     bordercolor="#666666"
     borderopacity="1"
     objecttolerance="10"
     gridtolerance="10"
     guidetolerance="10"
     inkscape:pageopacity="0"
     inkscape:pageshadow="2"
     inkscape:window-width="1920"
     inkscape:window-height="1001"
     id="namedview56"
     showgrid="false"
     inkscape:zoom="6.7119902"
     inkscape:cx="54.076229"
     inkscape:cy="23.244792"
     inkscape:window-x="-9"
     inkscape:window-y="-9"
     inkscape:window-maximized="1"
     inkscape:current-layer="g52" />
  <g
     transform="translate(-41.270413,-127.48926)"
     id="g46"
     style="stroke:#000000;stroke-opacity:1">
    <g
       fill="none"
       stroke="#000"
       stroke-width="3"
       id="g44"
       style="stroke:#000000;stroke-opacity:1" />
  </g>
  <g
     fill="none"
     stroke="#000000"
     stroke-width="3"
     id="g52"
     transform="translate(0.42258722,-3.6992617)">
    <path
       style="stroke-width:2.99972;stroke-linejoin:bevel;stroke-miterlimit:4;stroke-dasharray:none"
       d="m 53.425681,12.72 0.01269,29.318"
       id="path996" />
    <path
       style="stroke-width:2.99972;stroke-linejoin:bevel;stroke-miterlimit:4;stroke-dasharray:none"
       d="m 64.827,-0.52 c -0.16811,13.572 -0.33621,27.143 -0.0591,34.18 0.27711,7.0376 0.9982,7.5419 1.7181,8.0453"
       id="path994" />
    <path
       style="stroke-width:2.99972;stroke-linejoin:bevel;stroke-miterlimit:4;stroke-dasharray:none"
       d="m 98.807,-0.46 c -0.16811,13.572 -0.33621,27.143 -0.0591,34.18 0.27711,7.0376 0.9982,7.5419 1.7181,8.0453"
       id="path992" />
    <path
       style="stroke-width:2.99972;stroke-linejoin:bevel;stroke-miterlimit:4;stroke-dasharray:none"
       d="M 98.533,27.62 A 13.486,14.005 0 0 1 85.047,41.625 13.486,14.005 0 0 1 71.561,27.62 13.486,14.005 0 0 1 85.047,13.615 13.486,14.005 0 0 1 98.533,27.62 Z"
       id="path990" />
    <path
       style="stroke-width:2.99972;stroke-linejoin:miter;stroke-miterlimit:4;stroke-dasharray:none"
       d="m 105.407,27.68 c 4.7457,-0.15371 10.717,0.68549 15.561,-0.45387 4.5201,-1.0632 7.7115,-5.64 10.228,-7.6996 -1.8251,-2.3923 -3.8095,-3.9884 -6.6456,-5.0286 -2.8362,-1.0401 -6.0064,-1.1458 -8.9056,-0.29694 -2.8992,0.84889 -5.5117,2.6478 -7.339,5.0534 -1.8273,2.4056 -2.8594,5.405 -2.8995,8.4256 -0.0378,2.8511 0.80553,5.7079 2.3857,8.0814 1.5802,2.3735 3.8905,4.2536 6.5355,5.3186 2.645,1.065 5.6136,1.3103 8.3976,0.69397 2.784,-0.61633 5.3716,-2.0917 7.32,-4.1736"
       id="path988" />
    <path
       style="stroke-width:2.99972;stroke-linejoin:bevel;stroke-miterlimit:4;stroke-dasharray:none"
       d="m 0.94801,12.648 12.896,29.017 10.205,-22.705 0.02344,-5.0932 -0.02344,5.0932 10.292,22.67 12.845,-28.908"
       id="path48" />
  </g>
  <path
     style="fill:#000000;stroke-width:0.0894725"
     d="m 52.776706,6.9108363 -1.051951,-0.9941652 0.85108,-0.866251 c 0.78698,-0.801017 0.851075,-0.893027 0.851075,-1.221764 0,-0.195532 -0.02773,-0.38326 -0.06166,-0.417176 -0.03393,-0.03392 -0.225164,0.09768 -0.424996,0.292434 l -0.363336,0.354097 -0.219813,-0.180091 -0.219812,-0.180091 0.644808,-0.630923 0.644809,-0.630922 -0.0013,-0.502901 c -8.67e-4,-0.276594 -0.03094,-0.546732 -0.06711,-0.600307 -0.04412,-0.06538 -0.23992,-0.0066 -0.595552,0.178946 -0.522652,0.272616 -0.531912,0.284219 -0.684792,0.857926 -0.08524,0.319864 -0.179755,0.692295 -0.210041,0.827622 -0.06039,0.269882 -0.109672,0.287596 -0.445211,0.160025 -0.22545,-0.08572 -0.225797,-0.08756 -0.09627,-0.514468 0.0715,-0.235644 0.130438,-0.460963 0.130966,-0.500709 4.34e-4,-0.03974 -0.193609,0.03711 -0.431431,0.170798 -0.411861,0.231525 -0.43767,0.268935 -0.543677,0.788048 -0.108316,0.530406 -0.319839,1.291509 -0.440496,1.584947 -0.05372,0.130642 -0.167609,0.119304 -1.133388,-0.112836 -1.819609,-0.437372 -1.770846,-0.414663 -1.709829,-0.796241 0.02873,-0.17976 0.11018,-0.524325 0.180965,-0.765698 0.07079,-0.241374 0.196208,-0.709301 0.278715,-1.039839 l 0.150007,-0.600977 0.415861,0.05166 c 0.228727,0.02841 0.582582,0.105638 0.786357,0.171606 0.720768,0.233339 1.262396,0.257598 1.646247,0.07373 0.193726,-0.0928 0.352694,-0.192486 0.353257,-0.221534 4.34e-4,-0.02905 -0.220415,-0.105938 -0.49107,-0.170867 -0.498217,-0.11952 -0.591773,-0.240812 -0.408777,-0.52995103 0.06862,-0.108428 0.198107,-0.09795 0.872578,0.07065 l 0.791994,0.197974 0.401037,-0.22808503 c 0.220571,-0.125448 0.471497,-0.252527 0.557614,-0.2824 0.267899,-0.09293 0.176271,-0.204357 -0.402623,-0.489607 l -0.559208,-0.275545 -0.803218,0.22639 c -0.842465,0.23746 -0.968895,0.215186 -0.919642,-0.162006 0.01681,-0.128704 0.152954,-0.212769 0.512772,-0.31660596 l 0.489892,-0.141373 -0.432315,-0.241625 -0.432311,-0.24162303 -1.196307,0.34209803 -1.196308,0.342099 -0.08849,-0.27597 c -0.04867,-0.151782 -0.127794,-0.43701803 -0.175825,-0.63385901 -0.124986,-0.512232 -0.428935,-1.584087 -0.499013,-1.75975 -0.06289,-0.157645 -0.0881,-0.148103 1.953531,-0.739535 0.435418,-0.126135 0.82404,-0.209329 0.863603,-0.184878 0.0671,0.04147 0.22454,0.520086 0.581256,1.767006 0.128171,0.448038 0.196417,0.543275 0.528948,0.73815 0.424277,0.248644 0.573157,0.28516 0.422496,0.103626 -0.05483,-0.06606 -0.110084,-0.313847 -0.122794,-0.550629 -0.02136,-0.39806 -0.0052,-0.435457 0.214141,-0.4961 0.223218,-0.06171 0.243598,-0.04105 0.344712,0.349315 0.30872,1.19187301 0.325936,1.22101001 0.898855,1.52132601 0.294215,0.154223 0.55448,0.28040496 0.578365,0.28040496 0.02388,0 0.04342,-0.27785596 0.04342,-0.61745799 V -1.3705039 l -0.648673,-0.583084 -0.648679,-0.583084 0.214678,-0.228647 0.214682,-0.228647 0.411627,0.400885 0.411632,0.400885 0.02747,-0.460565 0.02747,-0.460564 -0.580567,-0.555416 c -0.31931,-0.305479 -0.734305,-0.680499 -0.922207,-0.833379 l -0.34164,-0.277964 1.053642,-1.04473 c 1.205689,-1.195493 0.971312,-1.169426 1.941874,-0.215972 0.275509,0.270656 0.672854,0.645137 0.882986,0.832181 l 0.382057,0.340082 -0.861172,0.81501 -0.861172,0.815012 0.02071,0.410679 c 0.0114,0.225874 0.03887,0.444644 0.06107,0.486155 0.02219,0.04151 0.209101,-0.09012 0.415324,-0.292515 l 0.374951,-0.367989 0.194532,0.207066 0.194527,0.207066 -0.625789,0.620996 -0.625794,0.620996 0.01244,0.60522901 c 0.0068,0.332877 0.02968,0.60522996 0.05079,0.60522996 0.0211,0 0.278408,-0.12887096 0.571814,-0.28637896 0.521863,-0.280154 0.537117,-0.299118 0.701679,-0.87236001 0.09252,-0.322288 0.194225,-0.700626 0.226014,-0.840752 0.05087,-0.224249 0.08681,-0.247608 0.299953,-0.194981 0.367276,0.09068 0.398563,0.166972 0.235552,0.574378 -0.0825,0.206195 -0.125073,0.399831 -0.0946,0.430303 0.06132,0.06132 0.666674,-0.237548 0.750732,-0.370647 0.06057,-0.09591 0.555958,-1.880893 0.597433,-2.152679 0.01504,-0.09842 0.0627,-0.172361 0.105958,-0.164313 0.147841,0.0275 1.330559,0.318178 1.778625,0.437131 0.246051,0.06532 0.578219,0.14458 0.738153,0.176132 0.356296,0.07029 0.368299,0.206058 0.104815,1.185813 -0.213282,0.793091 -0.464949,1.66217201 -0.493653,1.70470401 -0.01075,0.01594 -0.435981,-0.073 -0.944949,-0.197646 -1.156757,-0.28328103 -1.477883,-0.30354001 -1.836821,-0.11587603 -0.437416,0.22869103 -0.420316,0.29311103 0.109256,0.41162603 0.355793,0.07962 0.48864,0.150342 0.487639,0.25959596 -0.0035,0.359617 -0.110786,0.389195 -0.855522,0.235365 -0.389072,-0.08037 -0.733655,-0.162342 -0.765739,-0.182173 -0.167825,-0.103721 -1.313242,0.556167 -1.180283,0.679974 0.226122,0.210558 1.095393,0.59147203 1.207107,0.52895303 0.06946,-0.03887 0.36634,-0.12858103 0.659737,-0.19935603 0.293397,-0.07077 0.599105,-0.156544 0.679358,-0.1906 0.10774,-0.04572 0.169698,0.0063 0.236812,0.198835 0.08606,0.24687503 0.07312,0.26859903 -0.243082,0.40810903 -0.18369,0.08104 -0.421109,0.147352 -0.527601,0.147352 -0.106487,0 -0.193613,0.04026 -0.193613,0.08947 0,0.04921 0.07509,0.08947 0.166876,0.08947 0.09179,0 0.268411,0.07986 0.392501,0.177475 0.249097,0.195937 0.123279,0.217729 2.080064,-0.360286 l 0.53684,-0.158576 0.11453,0.266132 c 0.06299,0.146372 0.171179,0.474827 0.240417,0.729898 0.06924,0.255072 0.208945,0.75516 0.310466,1.11131 0.219856,0.771326 0.217503,0.739282 0.05436,0.739282 -0.15808,0 -1.738395,0.443424 -1.930678,0.541734 -0.07548,0.03859 -0.303476,0.09496 -0.506666,0.125262 -0.360425,0.05376 -0.371002,0.04793 -0.433636,-0.238843 -0.118142,-0.540985 -0.589327,-1.903188 -0.695975,-2.012098 -0.05797,-0.05921 -0.252321,-0.168768 -0.431881,-0.24347 l -0.326469,-0.135821 0.138822,0.434113 c 0.164775,0.515268 0.108507,0.723869 -0.195264,0.723869 -0.186316,0 -0.239919,-0.06241 -0.326612,-0.380259 -0.327071,-1.199199 -0.326131,-1.197604 -0.849784,-1.445542 -0.269577,-0.127639 -0.529304,-0.232071 -0.57717,-0.232071 -0.04786,0 -0.08703,0.260095 -0.08703,0.577987 0,0.57419 0.0026,0.580593 0.424996,0.974773 0.233749,0.218233 0.525304,0.477713 0.647903,0.576624 0.219869,0.177388 0.220592,0.18239 0.05324,0.367317 -0.224199,0.247739 -0.261427,0.240725 -0.666988,-0.125674 -0.190645,-0.172235 -0.371943,-0.313155 -0.402887,-0.313155 -0.03094,0 -0.05736,0.171117 -0.05872,0.38026 -0.0022,0.367216 0.02908,0.410131 0.917093,1.251255 l 0.91956,0.870997 -0.933838,0.8973762 c -0.513614,0.493556 -0.996967,0.9545 -1.074117,1.02432 -0.123908,0.112137 -0.262982,0.01098 -1.192221,-0.867219 z m 1.609218,-0.53423 c 0.427696,-0.4223812 0.584887,-0.6931682 0.405444,-0.6984412 -0.03692,-0.0011 -0.264203,-0.182003 -0.505098,-0.402042 l -0.437991,-0.40007 -0.412001,0.375819 c -0.703802,0.641999 -0.700782,0.621382 -0.166322,1.1354122 0.258557,0.248675 0.509102,0.453006 0.556764,0.454068 0.04767,0.0011 0.299308,-0.208074 0.559204,-0.464746 z M 49.599632,3.8459471 c 0.141154,-0.49313 0.222521,-1.118409 0.145535,-1.118409 -0.04186,0 -0.08618,3.7e-5 -0.09848,8.2e-5 -0.01231,4.5e-5 -0.30157,-0.07976 -0.642816,-0.177351 -0.341245,-0.09759 -0.626041,-0.168083 -0.632874,-0.156659 -0.0523,0.08742 -0.242086,0.967442 -0.253479,1.175352 -0.01335,0.243815 0.01889,0.26949 0.5226,0.416014 0.718402,0.208975 0.866021,0.187587 0.959514,-0.139029 z m 9.383061,-0.05345 c 0.339807,-0.103212 0.61783,-0.219604 0.61783,-0.258647 0,-0.03904 -0.07964,-0.246501 -0.176978,-0.461017 -0.09734,-0.214517 -0.177866,-0.501519 -0.178945,-0.637784 -0.0022,-0.277839 -4.33e-4,-0.277853 -1.010681,0.0082 -0.474018,0.13422 -0.513664,0.165002 -0.480826,0.373348 0.07113,0.451353 0.371111,1.163561 0.490087,1.163561 0.06692,0 0.399706,-0.08445 0.739513,-0.187661 z m -9.78337,-5.196343 c 0.307563,-0.108017 0.559204,-0.244443 0.559204,-0.303166 0,-0.272786 -0.443387,-1.24453 -0.55309,-1.212167 -0.06487,0.01914 -0.359532,0.09234 -0.654792,0.162679 -0.295256,0.07033 -0.566445,0.156758 -0.602637,0.192054 -0.03618,0.0353 0.01413,0.27456 0.111839,0.531696 0.0977,0.257136 0.177645,0.547614 0.177645,0.645506 0,0.23694 0.252326,0.232585 0.961831,-0.0166 z m 10.044657,-0.381719 c 8.67e-4,-0.101317 0.05736,-0.345158 0.12581,-0.541868 0.14115,-0.405611 0.116844,-0.492335 -0.137995,-0.492335 -0.09857,0 -0.377572,-0.06488 -0.620005,-0.144174 -0.242432,-0.0793 -0.491573,-0.124616 -0.553648,-0.100712 -0.110253,0.04245 -0.274915,0.535952 -0.372424,1.116156 -0.04362,0.25958 -0.02336,0.294993 0.194914,0.340631 0.133978,0.02802 0.444907,0.104324 0.690958,0.16958 0.393103,0.104257 0.460928,0.101563 0.559204,-0.02221 0.06151,-0.07747 0.112445,-0.223753 0.113186,-0.32507 z m -5.027728,-2.586966 0.47619,-0.473562 -0.520923,-0.504947 -0.520927,-0.504948 -0.515173,0.509436 c -0.283343,0.280189 -0.504785,0.540582 -0.492097,0.578652 0.02509,0.07529 0.978965,0.860134 1.052003,0.865589 0.02461,0.0018 0.259025,-0.209761 0.520927,-0.47022 z"
     id="path2629"
     sodipodi:nodetypes="ccssssccccccsssssscssssssscssscssscssscssscccccsssssssssssssscccccccccsscssscccsssccccccssssssssssssssssssssssssssssssscssssssssscssssssssssssscssscssscssssssssssssssssssssssssssssscsssssssscscccssss" />
</svg>
