<svg width="129.02" height="48.589" version="1.1" viewBox="0 0 133.69 35.798" xmlns="http://www.w3.org/2000/svg">
 <g transform="translate(.42258 -.53449)" fill="none" stroke="#fff" stroke-width="2.9997">
  <g stroke-linejoin="bevel">
   <path d="m53.426 12.72 0.01269 29.318"/>
   <path d="m64.827-0.52c-0.16811 13.572-0.33621 27.143-0.0591 34.18 0.27711 7.0376 0.9982 7.5419 1.7181 8.0453"/>
   <path d="m98.807-0.46c-0.16811 13.572-0.33621 27.143-0.0591 34.18 0.27711 7.0376 0.9982 7.5419 1.7181 8.0453"/>
   <path d="m98.533 27.62a13.486 14.005 0 0 1-13.486 14.005 13.486 14.005 0 0 1-13.486-14.005 13.486 14.005 0 0 1 13.486-14.005 13.486 14.005 0 0 1 13.486 14.005z"/>
  </g>
  <path d="m105.41 27.68c4.7457-0.15371 10.717 0.68549 15.561-0.45387 4.5201-1.0632 7.7115-5.64 10.228-7.6996-1.8251-2.3923-3.8095-3.9884-6.6456-5.0286-2.8362-1.0401-6.0064-1.1458-8.9056-0.29694-2.8992 0.84889-5.5117 2.6478-7.339 5.0534s-2.8594 5.405-2.8995 8.4256c-0.0378 2.8511 0.80553 5.7079 2.3857 8.0814 1.5802 2.3735 3.8905 4.2536 6.5355 5.3186s5.6136 1.3103 8.3976 0.69397 5.3716-2.0917 7.32-4.1736"/>
  <path d="m0.94801 12.648 12.896 29.017 10.205-22.705 0.02344-5.0932-0.02344 5.0932 10.292 22.67 12.845-28.908" stroke-linejoin="bevel"/>
 </g>
 <path d="m53.2 6.3763-1.052-0.99417 0.85108-0.86625c0.78698-0.80102 0.85108-0.89303 0.85108-1.2218 0-0.19553-0.02773-0.38326-0.06166-0.41718s-0.22516 0.09768-0.425 0.29243l-0.36334 0.3541-0.43962-0.36018 1.2896-1.2618-0.0013-0.5029c-8.67e-4 -0.27659-0.03094-0.54673-0.06711-0.60031-0.04412-0.06538-0.23992-0.0066-0.59555 0.17895-0.52265 0.27262-0.53191 0.28422-0.68479 0.85793-0.08524 0.31986-0.17976 0.6923-0.21004 0.82762-0.06039 0.26988-0.10967 0.2876-0.44521 0.16002-0.22545-0.08572-0.2258-0.08756-0.09627-0.51447 0.0715-0.23564 0.13044-0.46096 0.13097-0.50071 4.34e-4 -0.03974-0.19361 0.03711-0.43143 0.1708-0.41186 0.23152-0.43767 0.26894-0.54368 0.78805-0.10832 0.53041-0.31984 1.2915-0.4405 1.5849-0.05372 0.13064-0.16761 0.1193-1.1334-0.11284-1.8196-0.43737-1.7708-0.41466-1.7098-0.79624 0.02873-0.17976 0.11018-0.52432 0.18096-0.7657 0.07079-0.24137 0.19621-0.7093 0.27872-1.0398l0.15001-0.60098 0.41586 0.05166c0.22873 0.02841 0.58258 0.10564 0.78636 0.17161 0.72077 0.23334 1.2624 0.2576 1.6462 0.07373 0.19373-0.0928 0.35269-0.19249 0.35326-0.22153 4.34e-4 -0.02905-0.22042-0.10594-0.49107-0.17087-0.49822-0.11952-0.59177-0.24081-0.40878-0.52995 0.06862-0.10843 0.19811-0.09795 0.87258 0.07065l0.79199 0.19797 0.40104-0.22809c0.22057-0.12545 0.4715-0.25253 0.55761-0.2824 0.2679-0.09293 0.17627-0.20436-0.40262-0.48961l-0.55921-0.27554-0.80322 0.22639c-0.84246 0.23746-0.9689 0.21519-0.91964-0.16201 0.01681-0.1287 0.15295-0.21277 0.51277-0.31661l0.48989-0.14137-0.86463-0.48325-2.3926 0.6842-0.08849-0.27597c-0.04867-0.15178-0.12779-0.43702-0.17582-0.63386-0.12499-0.51223-0.42894-1.5841-0.49901-1.7598-0.06289-0.15764-0.0881-0.1481 1.9535-0.73954 0.43542-0.12614 0.82404-0.20933 0.8636-0.18488 0.0671 0.04147 0.22454 0.52009 0.58126 1.767 0.12817 0.44804 0.19642 0.54328 0.52895 0.73815 0.42428 0.24864 0.57316 0.28516 0.4225 0.10363-0.05483-0.06606-0.11008-0.31385-0.12279-0.55063-0.02136-0.39806-0.0052-0.43546 0.21414-0.4961 0.22322-0.06171 0.2436-0.04105 0.34471 0.34932 0.30872 1.1919 0.32594 1.221 0.89886 1.5213 0.29422 0.15422 0.55448 0.2804 0.57836 0.2804s0.04342-0.27786 0.04342-0.61746v-0.61746l-1.2974-1.1662 0.42936-0.4573 0.82326 0.80177 0.05494-0.92112-0.58057-0.55542c-0.31931-0.30548-0.7343-0.6805-0.92221-0.83338l-0.34164-0.27796 1.0536-1.0447c1.2057-1.1955 0.97131-1.1694 1.9419-0.21597 0.27551 0.27066 0.67285 0.64514 0.88299 0.83218l0.38206 0.34008-1.7223 1.63 0.02071 0.41068c0.0114 0.22587 0.03887 0.44464 0.06107 0.48616 0.02219 0.04151 0.2091-0.09012 0.41532-0.29252l0.37495-0.36799 0.38906 0.41414-1.2516 1.242 0.01244 0.60523c0.0068 0.33288 0.02968 0.60523 0.05079 0.60523 0.0211 0 0.27841-0.12887 0.57181-0.28638 0.52186-0.28015 0.53712-0.29912 0.70168-0.87236 0.09252-0.32229 0.19422-0.70063 0.22601-0.84075 0.05087-0.22425 0.08681-0.24761 0.29995-0.19498 0.36728 0.09068 0.39856 0.16697 0.23555 0.57438-0.0825 0.2062-0.12507 0.39983-0.0946 0.4303 0.06132 0.06132 0.66667-0.23755 0.75073-0.37065 0.06057-0.09591 0.55596-1.8809 0.59743-2.1527 0.01504-0.09842 0.0627-0.17236 0.10596-0.16431 0.14784 0.0275 1.3306 0.31818 1.7786 0.43713 0.24605 0.06532 0.57822 0.14458 0.73815 0.17613 0.3563 0.07029 0.3683 0.20606 0.10482 1.1858-0.21328 0.79309-0.46495 1.6622-0.49365 1.7047-0.01075 0.01594-0.43598-0.073-0.94495-0.19765-1.1568-0.28328-1.4779-0.30354-1.8368-0.11588-0.43742 0.22869-0.42032 0.29311 0.10926 0.41163 0.35579 0.07962 0.48864 0.15034 0.48764 0.2596-0.0035 0.35962-0.11079 0.3892-0.85552 0.23536-0.38907-0.08037-0.73366-0.16234-0.76574-0.18217-0.16782-0.10372-1.3132 0.55617-1.1803 0.67997 0.22612 0.21056 1.0954 0.59147 1.2071 0.52895 0.06946-0.03887 0.36634-0.12858 0.65974-0.19936 0.2934-0.07077 0.5991-0.15654 0.67936-0.1906 0.10774-0.04572 0.1697 0.0063 0.23681 0.19884 0.08606 0.24688 0.07312 0.2686-0.24308 0.40811-0.18369 0.08104-0.42111 0.14735-0.5276 0.14735s-0.19361 0.04026-0.19361 0.08947 0.07509 0.08947 0.16688 0.08947 0.26841 0.07986 0.3925 0.17748c0.2491 0.19594 0.12328 0.21773 2.0801-0.36029l0.53684-0.15858 0.11453 0.26613c0.06299 0.14637 0.17118 0.47483 0.24042 0.7299s0.20894 0.75516 0.31047 1.1113c0.21986 0.77133 0.2175 0.73928 0.05436 0.73928-0.15808 0-1.7384 0.44342-1.9307 0.54173-0.07548 0.03859-0.30348 0.09496-0.50667 0.12526-0.36042 0.05376-0.371 0.04793-0.43364-0.23884-0.11814-0.54098-0.58933-1.9032-0.69598-2.0121-0.05797-0.05921-0.25232-0.16877-0.43188-0.24347l-0.32647-0.13582 0.13882 0.43411c0.16478 0.51527 0.10851 0.72387-0.19526 0.72387-0.18632 0-0.23992-0.06241-0.32661-0.38026-0.32707-1.1992-0.32613-1.1976-0.84978-1.4455-0.26958-0.12764-0.5293-0.23207-0.57717-0.23207-0.04786 0-0.08703 0.2601-0.08703 0.57799 0 0.57419 0.0026 0.58059 0.425 0.97477 0.23375 0.21823 0.5253 0.47771 0.6479 0.57662 0.21987 0.17739 0.22059 0.18239 0.05324 0.36732-0.2242 0.24774-0.26143 0.24072-0.66699-0.12567-0.19064-0.17224-0.37194-0.31316-0.40289-0.31316-0.03094 0-0.05736 0.17112-0.05872 0.38026-0.0022 0.36722 0.02908 0.41013 0.91709 1.2513l0.91956 0.871-0.93384 0.89738c-0.51361 0.49356-0.99697 0.9545-1.0741 1.0243-0.12391 0.11214-0.26298 0.01098-1.1922-0.86722zm1.6092-0.53423c0.4277-0.42238 0.58489-0.69317 0.40544-0.69844-0.03692-0.0011-0.2642-0.182-0.5051-0.40204l-0.43799-0.40007-0.412 0.37582c-0.7038 0.642-0.70078 0.62138-0.16632 1.1354 0.25856 0.24868 0.5091 0.45301 0.55676 0.45407 0.04767 0.0011 0.29931-0.20807 0.5592-0.46475zm-4.7863-2.5307c0.14115-0.49313 0.22252-1.1184 0.14554-1.1184-0.04186 0-0.08618 3.7e-5 -0.09848 8.2e-5 -0.01231 4.5e-5 -0.30157-0.07976-0.64282-0.17735-0.34124-0.09759-0.62604-0.16808-0.63287-0.15666-0.0523 0.08742-0.24209 0.96744-0.25348 1.1754-0.01335 0.24382 0.01889 0.26949 0.5226 0.41601 0.7184 0.20898 0.86602 0.18759 0.95951-0.13903zm9.3831-0.05345c0.33981-0.10321 0.61783-0.2196 0.61783-0.25865 0-0.03904-0.07964-0.2465-0.17698-0.46102s-0.17787-0.50152-0.17894-0.63778c-0.0022-0.27784-4.33e-4 -0.27785-1.0107 0.0082-0.47402 0.13422-0.51366 0.165-0.48083 0.37335 0.07113 0.45135 0.37111 1.1636 0.49009 1.1636 0.06692 0 0.39971-0.08445 0.73951-0.18766zm-9.7834-5.1963c0.30756-0.10802 0.5592-0.24444 0.5592-0.30317 0-0.27279-0.44339-1.2445-0.55309-1.2122-0.06487 0.01914-0.35953 0.09234-0.65479 0.16268-0.29526 0.07033-0.56644 0.15676-0.60264 0.19205-0.03618 0.0353 0.01413 0.27456 0.11184 0.5317 0.0977 0.25714 0.17764 0.54761 0.17764 0.64551 0 0.23694 0.25233 0.23258 0.96183-0.0166zm10.045-0.38172c8.67e-4 -0.10132 0.05736-0.34516 0.12581-0.54187 0.14115-0.40561 0.11684-0.49234-0.138-0.49234-0.09857 0-0.37757-0.06488-0.62-0.14417-0.24243-0.0793-0.49157-0.12462-0.55365-0.10071-0.11025 0.04245-0.27492 0.53595-0.37242 1.1162-0.04362 0.25958-0.02336 0.29499 0.19491 0.34063 0.13398 0.02802 0.44491 0.10432 0.69096 0.16958 0.3931 0.10426 0.46093 0.10156 0.5592-0.02221 0.06151-0.07747 0.11244-0.22375 0.11319-0.32507zm-5.0277-2.587 0.47619-0.47356-1.0418-1.0099-0.51517 0.50944c-0.28334 0.28019-0.50478 0.54058-0.4921 0.57865 0.02509 0.07529 0.97896 0.86013 1.052 0.86559 0.02461 0.0018 0.25902-0.20976 0.52093-0.47022z" fill="#fff" stroke-width=".089472"/>
</svg>