<svg version="1" xmlns="http://www.w3.org/2000/svg" width="1689.333" height="1689.333" viewBox="0 0 1267.000000 1267.000000"><path d="M329.1 79.2c-5.6 5.7-18.8 27.2-34.6 56.3-2.1 3.8-7.8 14.2-12.8 23-5 8.8-9.5 16.9-10.1 18-.6 1.1-2.9 4.6-5 7.7-3.9 5.9-6.6 7.5-12.1 7.3-6.4-.3-22.9-1.6-23.5-1.9-.3-.2-3.7-.7-7.6-1-3.9-.4-8.1-.8-9.2-1.1-1.2-.2-4.7-.6-7.9-1-3.2-.3-7.1-.8-8.8-1-1.6-.2-5.2-.7-8-1-2.7-.4-6.3-.8-8-1-4.6-.7-15.2-1.8-28.5-3.1-9.9-.9-22.2-.7-25.2.5-3.2 1.2-3.1 3.1.7 9 2.9 4.7 16.3 20.8 24 29.1 2.9 3 6.7 7.1 8.4 9 1.8 1.9 7.7 8.2 13.1 14 31.4 33.7 38 41.5 38 45.6 0 3.9-3.7 13.3-13.1 33.2-2.7 5.7-4.9 10.5-4.9 10.7 0 .1-2.6 5.8-5.9 12.6-13.5 28.5-24.2 53.3-25.5 59.5-1.4 6.6-1.5 7.8-.5 9 2 2.4 11.1-.2 31.9-9.1 6.9-2.9 16.6-7.2 21.5-9.5 5-2.3 12.2-5.7 16-7.5 3.9-1.8 11-5.1 15.9-7.4 21.9-10.4 36-16.1 39.6-16.1 4 0 9.2 4.1 33.4 26.4 1.7 1.5 8.3 7.7 14.6 13.6 21.8 20.5 26.5 24.8 35 32 8.9 7.6 17 13.3 20.6 14.4 3.8 1.2 4.8-3.5 4-19.2-.7-14.2-.9-17.6-1.9-25.2-.4-2.5-.9-7.2-1.2-10.5-.4-3.3-.8-7.1-1-8.5-.2-1.4-.9-6.6-1.5-11.5-.6-5-1.3-10.1-1.5-11.5-.2-1.4-.7-5.4-1-9-.4-3.6-.8-7.2-1-8-1.6-8.8-2.6-30-1.5-32.1 2-3.6 10.7-7.8 23.5-11.3 18.6-5.1 52.1-12.6 67.5-15.1 1.9-.3 6-1 9-1.5 12.4-2 23.6-3.7 31.5-4.5 3.3-.4 7.1-.8 8.5-1 2.4-.3 11-1.2 19.5-2 26-2.6 94-2.6 116.5 0 1.9.2 6.4.6 10 1 3.6.3 8.1.8 10 1 1.9.3 5.5.7 8 1 2.5.3 5.6.7 7 1 1.4.2 5 .7 8 1.1 3 .4 5.7.8 6 .9.3 0 2.7.4 5.3.9 2.7.4 5.6.9 6.5 1.1 12.6 2.5 28 5.8 33.2 7 3.6.9 7.4 1.8 8.5 2 1.1.3 7.6 2.1 14.5 4s13.2 3.7 14 3.9c4.9 1.3 36.3 12.1 46 15.9 54.2 21.1 109.2 51.8 157 87.5 35.3 26.4 70.9 58.4 79.8 71.8 11.1 16.6 15.7 31.5 15.5 50.4-.3 40.4-34.1 83.7-80.5 102.9-9 3.8-22.6 7.9-28.7 8.7-2.5.3-4.9.8-5.2 1-.4.2-6 .7-12.5 1-33.7 1.8-64.8-9.3-90.9-32.5-4.1-3.6-13.1-11.7-20.1-17.8-22.1-19.7-47.9-37.9-78.1-55.2-11.9-6.8-44.5-23.1-46.1-23.1-.5 0-3.2-1.1-6-2.5-2.9-1.4-5.6-2.5-6.2-2.5-.6 0-1.8-.4-2.8-1-3.5-2-23.2-8.9-38.2-13.3-21.1-6.2-41.4-10.8-58.5-13.2-2.2-.3-5.3-.7-7-1-14.7-2.2-28.9-3-52.5-3-21 .1-35.6.8-41.5 2-1.1.2-4.2.7-7 1-19.9 2.3-62.9 13.4-77 19.9-1.6.8-4.8 2.1-7 3.1-9.7 3.9-12.7 5.3-25.2 11.7-7.3 3.7-15.7 8.3-18.8 10.3-3 1.9-5.7 3.5-6 3.5-1.1 0-25 16.7-34.6 24.2-31.2 24.3-60.8 55.2-87.1 90.8-7.7 10.4-22.8 32.5-25.6 37.5-1.4 2.5-1.1 3.6-2.6-10-.4-3.3-.9-7.4-1.1-9-.2-1.7-.7-5.7-1-9-.4-3.3-.8-7.1-1-8.5-.2-1.4-.7-5.2-1-8.5-.7-7.3-1.1-10.7-2.4-21-.6-4.4-1.3-10.5-1.6-13.5-.3-3-.8-6.9-1-8.5-.5-4.3-1.5-12.2-2-18-.3-2.8-.7-6.1-1-7.5-.2-1.4-.7-5.4-1-9-.3-3.6-.8-7.6-1-9-.2-1.4-.6-4.9-.9-7.8-.7-6.2-1.7-14.6-2.2-18.7-.7-5.6-1.4-12-1.9-17-.3-2.8-.7-5.9-.9-7-.3-1.1-.5-3.2-.5-4.7l-.1-2.7-4.7 2.6c-8.5 4.7-26.6 16.9-35.3 23.8-29.4 23.6-54.9 54.2-75.7 91-3.4 6-19.3 38.1-19.3 39 0 .2-1.1 2.8-2.4 5.7-8 17.6-24 68-27.2 85.8-.3 1.4-.7 3.2-.9 4-.2.8-.7 3-1 4.9-.3 1.9-.8 3.7-1 4.1-.5.8-7.1 38.5-8.5 48.5-.6 4.4-1.3 9.6-1.6 11.5-.4 1.9-.7 5.1-.9 7-.3 4.4-1.6 16.8-2 19.6-.2 1.1-.6 6.5-1 11.8-.4 5.4-.9 11.5-1.1 13.5-2.2 25.9-2.2 102.8.1 127.6.4 4.8 1.6 19.2 2 25.5.4 5.1 1.4 13.9 1.9 16.6.2 1.1.7 5 1.1 8.9.8 8.5 1.1 10.3 4 27.8l2.4 13.8-2.4 4.7c-7.9 15.4-19.6 45.4-25.1 64.2-3 10.3-3.7 14.2-3.8 22.3-.1 9.7-.1 9.9 2.8 12.4 3.7 3.2 8.2 2.8 17-1.6 6.3-3.1 21.7-14.3 29.5-21.5 12.8-11.7 18.4-17.1 29-27.8l11.6-11.7 4.5.4c2.5.2 9.9.7 16.5 1 6.6.3 16.3.8 21.5 1.1 23.8 1.2 81.9.6 107.5-1.1 3.3-.2 9.8-.7 14.5-1 4.7-.3 10.3-.8 12.5-1 2.2-.2 6.7-.7 10-1 3.3-.4 7.4-.8 9-1 1.7-.2 5.3-.7 8-1 2.8-.3 6.1-.7 7.5-1 1.4-.2 4.8-.7 7.5-1 4.3-.5 27.8-4.3 37-6.1 1.7-.3 7.9-1.6 14-3 6-1.3 11.9-2.6 13-2.9 9.3-1.9 33.3-8.8 47.6-13.6 40.6-13.5 75-29.9 105.4-50.2 9.8-6.6 27.6-20 34-25.6 10.3-9.1 34.8-34.7 42.1-44.1 8.3-10.6 20.8-28.9 23.7-34.6l1.6-3.2-6.6-5.8c-34.6-30.7-77.5-54.9-117.6-66.5-20.5-5.9-37.8-8.3-59.4-8.3-5.7 0-10.3-.3-10.3-.6 0-1 15.8-16.1 21.5-20.5 2.7-2.2 5.6-4.6 6.3-5.3.7-.6 6.4-4.6 12.5-8.6 25.4-17 56-29.5 83.2-34.2 5-.8 10.1-1.7 11.4-1.9 1.4-.2 6.8-.7 12-1.1 22.2-1.6 42.4-.2 66.1 4.7 5.2 1.1 10.2 2.2 11 2.4 10.9 2.9 15 4.1 23.5 7.2 20.9 7.4 45.5 18.9 63.5 29.7 5.1 3.1 9.7 5.6 10.1 5.6.5 0 2.6 1 4.7 2.3 5.1 3.2 21.3 10.9 31.9 15.3 4.8 1.9 10.2 4.1 11.8 4.9 3.3 1.4 20.2 7.2 30.5 10.4 7.1 2.2 25.4 6.7 31 7.6 1.9.3 4.3.8 5.2 1.1 2.3.7 4.2 1 13.3 2.4 4.4.6 9.2 1.3 10.7 1.6 9.6 1.5 29.6 2.8 45.8 2.8 15.1 0 36.9-.9 42-1.8 1.4-.3 5-.7 8-1.1 3-.3 8.2-1 11.5-1.6 3.3-.6 7.6-1.3 9.5-1.5 5.3-.8 30.3-6.9 40.2-9.8 25.8-7.6 55.8-20.9 78.8-34.9 36.9-22.5 67.7-52.1 86.5-83.2 19.2-31.7 38.6-83.1 44.1-117 .3-1.7.9-5.3 1.4-8 .9-4.6 1.7-10.1 2.6-16.5 2-14.6 2.6-49.9 1.1-68.9-.4-5.8-.9-10.7-1.1-11-.2-.3-.6-2.9-1-5.6-.8-6.4-2.7-16.3-6.1-31.5-.3-1.4-1.2-4.6-5.7-19-3.6-11.6-11-29.2-17.5-41.8-22.3-43-52.2-78.6-94.2-112.1-10.8-8.5-27.5-20.1-29.1-20.1-.6 0-1-.3-1-.8 0-.4-1-1.2-2.3-1.8-1.2-.6-7.4-4.2-13.7-8.1-14.1-8.6-20.3-12.2-38.5-22-11.5-6.2-50.2-25.3-62.5-30.8-5.8-2.6-12.9-5.8-15.8-7.1-2.9-1.3-5.5-2.4-5.8-2.4-.3 0-2.4-.9-4.7-1.9-7.9-3.6-35.2-14.3-51.2-20.1-47.5-17.2-108-33.5-153-41.4-8.3-1.5-31.5-5.2-38.5-6.1-1.4-.2-4.3-.6-6.5-.9-2.2-.3-6.9-.8-10.5-1.2-3.6-.3-6.7-.7-7-.9-.3-.2-5.2-.6-11-1s-11.8-.8-13.4-1c-15.6-1.9-77-2.6-98.6-1.2-16.1 1.1-25.2 1.8-29 2.2-1.9.2-6 .7-9 1-7.1.7-14.9 1.6-16.9 2-.9.1-4.1.6-7.1 1s-6.4.9-7.5 1.1c-1 .2-3.7.6-6 .9-33.8 4.6-94.9 20.8-131.9 34.9-3.7 1.4-7 2.6-7.1 2.6-.1 0-.8-2.8-1.5-6.3-.7-3.4-1.4-6.7-1.6-7.2-.1-.6-.5-2.6-.8-4.5-.3-1.9-1.1-5.5-1.6-8s-2.6-13.1-4.6-23.5c-9-47.4-13.6-65.1-17.7-67.7-1.9-1.2-2.2-1-5.6 2.4z"/></svg>