<svg version="1.1" viewBox="0 0 1293 1287.6" xmlns="http://www.w3.org/2000/svg">
 <g transform="translate(-9.3875 -1.0736)" fill="none" stroke="#f00" stroke-width="30">
  <g stroke-linecap="round" stroke-linejoin="round">
   <path d="m25.57 105.15-0.98178 844.99m965.18-844.99c1.7563-86.057 3.5125-86.898-481.22-88.654-484.73-1.7562-484.73-0.91571-482.97 88.654m963.21 844.99c0 353.01 3.5125 321.4-481.22 323.15-484.73 1.7562-484.73 0-482.97-323.15"/>
   <path d="m147.53 312.62h632.26"/>
   <path d="m145.77 579.57h460.14"/>
   <path d="m147.53 848.28h277.49"/>
  </g>
  <path d="m732.38 980 8.7814-173.87 396.92-651.58 149.28 96.595-396.92 642.8z" stroke-linejoin="round"/>
  <path d="m741.16 806.12 149.28 87.814"/>
  <path d="m1088.9 224.8 156.31 96.595"/>
 </g>
</svg>